<svg xmlns="http://www.w3.org/2000/svg" width="41.999" height="38.319" viewBox="0 0 41.999 38.319">
  <path id="Subtraction_1" data-name="Subtraction 1" d="M-642.883-1552.681h0a21.193,21.193,0,0,1-6.622-7.384A21.034,21.034,0,0,1-652-1570a20.87,20.87,0,0,1,1.65-8.174,20.933,20.933,0,0,1,4.5-6.675,20.929,20.929,0,0,1,6.675-4.5A20.869,20.869,0,0,1-631-1591a20.869,20.869,0,0,1,8.174,1.65,20.931,20.931,0,0,1,6.675,4.5,20.93,20.93,0,0,1,4.5,6.675A20.869,20.869,0,0,1-610-1570a21.034,21.034,0,0,1-2.494,9.934,21.175,21.175,0,0,1-6.622,7.382,12,12,0,0,0-3.978-7.344A11.989,11.989,0,0,0-631-1563a11.989,11.989,0,0,0-7.906,2.972,11.992,11.992,0,0,0-3.977,7.345Z" transform="translate(652 1591)" fill="#fff"/>
</svg>
